<svg xmlns="http://www.w3.org/2000/svg" xmlns:xlink="http://www.w3.org/1999/xlink" width="500" zoomAndPan="magnify" viewBox="0 0 375 374.999991" height="500" preserveAspectRatio="xMidYMid meet" version="1.0"><defs><clipPath id="75ba26642a"><path d="M 17.324219 15.023438 L 362.277344 15.023438 L 362.277344 359.976562 L 17.324219 359.976562 Z M 17.324219 15.023438 " clip-rule="nonzero"/></clipPath><clipPath id="1959b63bec"><path d="M 189.800781 15.023438 C 94.542969 15.023438 17.324219 92.242188 17.324219 187.5 C 17.324219 282.757812 94.542969 359.976562 189.800781 359.976562 C 285.054688 359.976562 362.277344 282.757812 362.277344 187.5 C 362.277344 92.242188 285.054688 15.023438 189.800781 15.023438 Z M 189.800781 15.023438 " clip-rule="nonzero"/></clipPath><clipPath id="3a348cd087"><path d="M 12.722656 71.359375 L 311.683594 71.359375 L 311.683594 258 L 12.722656 258 Z M 12.722656 71.359375 " clip-rule="nonzero"/></clipPath></defs><g clip-path="url(#75ba26642a)"><g clip-path="url(#1959b63bec)"><path fill="#edffcc" d="M 17.324219 15.023438 L 362.277344 15.023438 L 362.277344 359.976562 L 17.324219 359.976562 Z M 17.324219 15.023438 " fill-opacity="1" fill-rule="nonzero"/></g></g><g clip-path="url(#3a348cd087)"><path fill="#59981a" d="M 185.40625 249.449219 C 185.40625 249.449219 128.441406 251.273438 75.125 205.457031 C 21.8125 159.640625 13.601562 72.878906 12.992188 73.484375 C 12.382812 74.09375 93.675781 57.777344 153.175781 111.902344 C 212.671875 166.027344 185.40625 249.449219 185.40625 249.449219 Z M 295.992188 191.773438 C 313.019531 157.816406 311.601562 114.4375 311.601562 114.4375 C 311.601562 114.4375 256.765625 114.03125 226.355469 151.636719 C 187.027344 200.085938 203.246094 257.65625 203.246094 257.65625 C 203.246094 257.65625 271.359375 240.832031 295.992188 191.773438 Z M 295.992188 191.773438 " fill-opacity="1" fill-rule="nonzero"/></g><path fill="#81b622" d="M 257.878906 164 C 255.953125 161.972656 252.710938 161.972656 250.683594 163.898438 C 218.550781 195.523438 202.738281 233.128906 195.035156 271.441406 C 186.523438 228.0625 162.703125 162.175781 95.90625 127.511719 C 93.371094 126.195312 90.332031 127.207031 89.113281 129.640625 C 87.796875 132.074219 88.808594 135.214844 91.242188 136.429688 C 184.496094 184.882812 189.359375 298.507812 189.5625 312.191406 C 188.546875 325.0625 188.246094 337.734375 188.144531 350.097656 C 188.144531 352.9375 190.375 355.167969 193.210938 355.167969 C 195.949219 355.167969 198.28125 352.9375 198.28125 350.097656 C 198.378906 338.542969 198.683594 326.785156 199.496094 314.824219 C 199.597656 314.417969 199.699219 314.015625 199.699219 313.609375 L 199.699219 312.492188 C 203.550781 262.929688 216.625 211.4375 257.777344 170.996094 C 259.804688 169.171875 259.804688 166.027344 257.878906 164 Z M 257.878906 164 " fill-opacity="1" fill-rule="nonzero"/></svg>