<svg xmlns="http://www.w3.org/2000/svg" xmlns:xlink="http://www.w3.org/1999/xlink" width="500" zoomAndPan="magnify" viewBox="0 0 375 374.999991" height="500" preserveAspectRatio="xMidYMid meet" version="1.0"><defs><g/><clipPath id="f14ab6eab1"><path d="M 20.625 149.3125 L 45 149.3125 L 45 174 L 20.625 174 Z M 20.625 149.3125 " clip-rule="nonzero"/></clipPath></defs><g clip-path="url(#f14ab6eab1)"><path fill="#89c428" d="M 32.542969 173.316406 C 39.136719 173.316406 44.5 167.949219 44.5 161.355469 C 44.5 154.761719 39.136719 149.398438 32.542969 149.398438 C 25.949219 149.398438 20.582031 154.761719 20.582031 161.355469 C 20.582031 167.949219 25.949219 173.316406 32.542969 173.316406 Z M 32.542969 152.699219 C 37.316406 152.699219 41.199219 156.582031 41.199219 161.355469 C 41.199219 166.132812 37.316406 170.015625 32.542969 170.015625 C 27.765625 170.015625 23.882812 166.132812 23.882812 161.355469 C 23.882812 156.582031 27.769531 152.699219 32.542969 152.699219 Z M 32.542969 152.699219 " fill-opacity="1" fill-rule="nonzero"/></g><path fill="#89c428" d="M 75.738281 192.566406 C 70.078125 192.566406 65.476562 197.171875 65.476562 202.832031 C 65.476562 208.488281 70.078125 213.089844 75.738281 213.089844 C 81.394531 213.089844 86 208.488281 86 202.832031 C 86 197.171875 81.394531 192.566406 75.738281 192.566406 Z M 75.738281 209.792969 C 71.898438 209.792969 68.777344 206.667969 68.777344 202.832031 C 68.777344 198.992188 71.898438 195.867188 75.738281 195.867188 C 79.578125 195.867188 82.699219 198.992188 82.699219 202.832031 C 82.699219 206.667969 79.578125 209.792969 75.738281 209.792969 Z M 75.738281 209.792969 " fill-opacity="1" fill-rule="nonzero"/><path fill="#89c428" d="M 63.957031 166.34375 C 67.007812 166.34375 69.492188 163.863281 69.492188 160.8125 C 69.492188 157.757812 67.007812 155.277344 63.957031 155.277344 C 60.90625 155.277344 58.421875 157.757812 58.421875 160.8125 C 58.421875 163.863281 60.90625 166.34375 63.957031 166.34375 Z M 63.957031 158.578125 C 65.191406 158.578125 66.191406 159.578125 66.191406 160.8125 C 66.191406 162.042969 65.191406 163.046875 63.957031 163.046875 C 62.726562 163.046875 61.722656 162.042969 61.722656 160.8125 C 61.722656 159.578125 62.726562 158.578125 63.957031 158.578125 Z M 63.957031 158.578125 " fill-opacity="1" fill-rule="nonzero"/><path fill="#89c428" d="M 35.058594 190.335938 C 35.058594 187.28125 32.574219 184.800781 29.523438 184.800781 C 26.472656 184.800781 23.988281 187.28125 23.988281 190.335938 C 23.988281 193.386719 26.472656 195.867188 29.523438 195.867188 C 32.574219 195.867188 35.058594 193.386719 35.058594 190.335938 Z M 27.289062 190.335938 C 27.289062 189.101562 28.289062 188.097656 29.523438 188.097656 C 30.753906 188.097656 31.757812 189.101562 31.757812 190.335938 C 31.757812 191.566406 30.753906 192.570312 29.523438 192.570312 C 28.289062 192.570312 27.289062 191.566406 27.289062 190.335938 Z M 27.289062 190.335938 " fill-opacity="1" fill-rule="nonzero"/><path fill="#89c428" d="M 32.542969 211.65625 C 29.492188 211.65625 27.007812 214.136719 27.007812 217.1875 C 27.007812 220.238281 29.492188 222.722656 32.542969 222.722656 C 35.59375 222.722656 38.078125 220.238281 38.078125 217.1875 C 38.078125 214.136719 35.59375 211.65625 32.542969 211.65625 Z M 32.542969 219.421875 C 31.308594 219.421875 30.308594 218.421875 30.308594 217.1875 C 30.308594 215.957031 31.308594 214.953125 32.542969 214.953125 C 33.773438 214.953125 34.777344 215.957031 34.777344 217.1875 C 34.777344 218.421875 33.773438 219.421875 32.542969 219.421875 Z M 32.542969 219.421875 " fill-opacity="1" fill-rule="nonzero"/><path fill="#fcfdfc" d="M 67.039062 195.269531 C 67.621094 194.570312 67.523438 193.527344 66.820312 192.949219 L 61.808594 188.800781 C 62.296875 187.808594 62.578125 186.695312 62.578125 185.515625 C 62.578125 182.847656 61.167969 180.507812 59.054688 179.183594 L 62.492188 169.011719 C 62.785156 168.148438 62.320312 167.210938 61.457031 166.921875 C 60.589844 166.628906 59.65625 167.09375 59.367188 167.957031 L 55.941406 178.089844 C 55.667969 178.058594 55.386719 178.042969 55.101562 178.042969 C 53.695312 178.042969 52.378906 178.441406 51.253906 179.121094 L 44.96875 171.410156 C 44.394531 170.703125 43.355469 170.597656 42.648438 171.171875 C 41.941406 171.746094 41.835938 172.789062 42.410156 173.492188 L 48.863281 181.410156 C 48.148438 182.488281 47.714844 183.765625 47.644531 185.136719 L 37.320312 187.414062 C 36.429688 187.613281 35.867188 188.492188 36.0625 189.382812 C 36.234375 190.152344 36.914062 190.675781 37.671875 190.675781 C 37.789062 190.675781 37.910156 190.664062 38.03125 190.636719 L 48.203125 188.394531 C 48.65625 189.480469 49.363281 190.433594 50.242188 191.1875 L 36.359375 209.492188 C 35.808594 210.21875 35.953125 211.253906 36.679688 211.804688 C 36.976562 212.03125 37.328125 212.140625 37.671875 212.140625 C 38.171875 212.140625 38.664062 211.914062 38.988281 211.488281 L 53.207031 192.742188 C 53.8125 192.902344 54.445312 192.996094 55.101562 192.996094 C 56.855469 192.996094 58.464844 192.382812 59.742188 191.371094 L 64.71875 195.488281 C 65.023438 195.746094 65.398438 195.871094 65.769531 195.871094 C 66.242188 195.867188 66.714844 195.664062 67.039062 195.269531 Z M 55.101562 189.695312 C 52.800781 189.695312 50.925781 187.820312 50.925781 185.515625 C 50.925781 183.214844 52.800781 181.339844 55.101562 181.339844 C 57.40625 181.339844 59.277344 183.214844 59.277344 185.515625 C 59.277344 187.820312 57.40625 189.695312 55.101562 189.695312 Z M 55.101562 189.695312 " fill-opacity="1" fill-rule="nonzero"/><g fill="#fcfdfc" fill-opacity="1"><g transform="translate(88.35766, 188.805557)"><g><path d="M 0.703125 -7.53125 C 0.703125 -9.019531 1.023438 -10.34375 1.671875 -11.5 C 2.316406 -12.664062 3.210938 -13.570312 4.359375 -14.21875 C 5.503906 -14.875 6.804688 -15.203125 8.265625 -15.203125 C 10.046875 -15.203125 11.570312 -14.726562 12.84375 -13.78125 C 14.113281 -12.84375 14.960938 -11.5625 15.390625 -9.9375 L 11.359375 -9.9375 C 11.066406 -10.5625 10.644531 -11.035156 10.09375 -11.359375 C 9.539062 -11.691406 8.914062 -11.859375 8.21875 -11.859375 C 7.09375 -11.859375 6.179688 -11.460938 5.484375 -10.671875 C 4.785156 -9.890625 4.4375 -8.84375 4.4375 -7.53125 C 4.4375 -6.21875 4.785156 -5.164062 5.484375 -4.375 C 6.179688 -3.59375 7.09375 -3.203125 8.21875 -3.203125 C 8.914062 -3.203125 9.539062 -3.367188 10.09375 -3.703125 C 10.644531 -4.035156 11.066406 -4.515625 11.359375 -5.140625 L 15.390625 -5.140625 C 14.960938 -3.515625 14.113281 -2.234375 12.84375 -1.296875 C 11.570312 -0.359375 10.046875 0.109375 8.265625 0.109375 C 6.804688 0.109375 5.503906 -0.210938 4.359375 -0.859375 C 3.210938 -1.515625 2.316406 -2.421875 1.671875 -3.578125 C 1.023438 -4.734375 0.703125 -6.050781 0.703125 -7.53125 Z M 0.703125 -7.53125 "/></g></g></g><g fill="#fcfdfc" fill-opacity="1"><g transform="translate(110.06949, 188.805557)"><g><path d="M 8.4375 0.15625 C 7.019531 0.15625 5.722656 -0.171875 4.546875 -0.828125 C 3.367188 -1.484375 2.429688 -2.398438 1.734375 -3.578125 C 1.046875 -4.753906 0.703125 -6.082031 0.703125 -7.5625 C 0.703125 -9.03125 1.046875 -10.347656 1.734375 -11.515625 C 2.429688 -12.679688 3.367188 -13.59375 4.546875 -14.25 C 5.722656 -14.90625 7.019531 -15.234375 8.4375 -15.234375 C 9.84375 -15.234375 11.132812 -14.90625 12.3125 -14.25 C 13.488281 -13.59375 14.414062 -12.679688 15.09375 -11.515625 C 15.78125 -10.347656 16.125 -9.03125 16.125 -7.5625 C 16.125 -6.082031 15.78125 -4.753906 15.09375 -3.578125 C 14.40625 -2.398438 13.472656 -1.484375 12.296875 -0.828125 C 11.128906 -0.171875 9.84375 0.15625 8.4375 0.15625 Z M 8.4375 -3.1875 C 9.632812 -3.1875 10.59375 -3.585938 11.3125 -4.390625 C 12.03125 -5.191406 12.390625 -6.25 12.390625 -7.5625 C 12.390625 -8.882812 12.03125 -9.941406 11.3125 -10.734375 C 10.59375 -11.523438 9.632812 -11.921875 8.4375 -11.921875 C 7.21875 -11.921875 6.25 -11.523438 5.53125 -10.734375 C 4.8125 -9.953125 4.453125 -8.894531 4.453125 -7.5625 C 4.453125 -6.226562 4.8125 -5.164062 5.53125 -4.375 C 6.25 -3.582031 7.21875 -3.1875 8.4375 -3.1875 Z M 8.4375 -3.1875 "/></g></g></g><g fill="#fcfdfc" fill-opacity="1"><g transform="translate(132.29516, 188.805557)"><g><path d="M 14.765625 0 L 11.109375 0 L 4.984375 -9.265625 L 4.984375 0 L 1.328125 0 L 1.328125 -15.03125 L 4.984375 -15.03125 L 11.109375 -5.71875 L 11.109375 -15.03125 L 14.765625 -15.03125 Z M 14.765625 0 "/></g></g></g><g fill="#fcfdfc" fill-opacity="1"><g transform="translate(153.792892, 188.805557)"><g><path d="M 4.984375 -12.09375 L 4.984375 -9.0625 L 9.890625 -9.0625 L 9.890625 -6.234375 L 4.984375 -6.234375 L 4.984375 -2.9375 L 10.53125 -2.9375 L 10.53125 0 L 1.328125 0 L 1.328125 -15.03125 L 10.53125 -15.03125 L 10.53125 -12.09375 Z M 4.984375 -12.09375 "/></g></g></g><g fill="#fcfdfc" fill-opacity="1"><g transform="translate(170.773084, 188.805557)"><g><path d="M 10.53125 0 L 7.46875 -4.609375 L 4.78125 0 L 0.625 0 L 5.4375 -7.640625 L 0.515625 -15.03125 L 4.78125 -15.03125 L 7.796875 -10.484375 L 10.453125 -15.03125 L 14.59375 -15.03125 L 9.828125 -7.453125 L 14.796875 0 Z M 10.53125 0 "/></g></g></g><g fill="#fcfdfc" fill-opacity="1"><g transform="translate(191.478631, 188.805557)"><g><path d="M 10.6875 -2.65625 L 5.078125 -2.65625 L 4.171875 0 L 0.34375 0 L 5.78125 -15.03125 L 10.015625 -15.03125 L 15.453125 0 L 11.578125 0 Z M 9.734375 -5.484375 L 7.875 -10.984375 L 6.03125 -5.484375 Z M 3.625 -16.078125 C 3.96875 -18.191406 4.953125 -19.25 6.578125 -19.25 C 6.890625 -19.25 7.160156 -19.203125 7.390625 -19.109375 C 7.628906 -19.015625 7.921875 -18.875 8.265625 -18.6875 C 8.523438 -18.539062 8.734375 -18.4375 8.890625 -18.375 C 9.046875 -18.3125 9.207031 -18.28125 9.375 -18.28125 C 9.90625 -18.28125 10.210938 -18.601562 10.296875 -19.25 L 12.1875 -19.25 C 11.84375 -17.132812 10.859375 -16.078125 9.234375 -16.078125 C 8.921875 -16.078125 8.644531 -16.125 8.40625 -16.21875 C 8.164062 -16.3125 7.878906 -16.445312 7.546875 -16.625 C 7.285156 -16.769531 7.078125 -16.875 6.921875 -16.9375 C 6.765625 -17 6.597656 -17.03125 6.421875 -17.03125 C 5.898438 -17.03125 5.585938 -16.710938 5.484375 -16.078125 Z M 3.625 -16.078125 "/></g></g></g><g fill="#fcfdfc" fill-opacity="1"><g transform="translate(212.65521, 188.805557)"><g><path d="M 8.4375 0.15625 C 7.019531 0.15625 5.722656 -0.171875 4.546875 -0.828125 C 3.367188 -1.484375 2.429688 -2.398438 1.734375 -3.578125 C 1.046875 -4.753906 0.703125 -6.082031 0.703125 -7.5625 C 0.703125 -9.03125 1.046875 -10.347656 1.734375 -11.515625 C 2.429688 -12.679688 3.367188 -13.59375 4.546875 -14.25 C 5.722656 -14.90625 7.019531 -15.234375 8.4375 -15.234375 C 9.84375 -15.234375 11.132812 -14.90625 12.3125 -14.25 C 13.488281 -13.59375 14.414062 -12.679688 15.09375 -11.515625 C 15.78125 -10.347656 16.125 -9.03125 16.125 -7.5625 C 16.125 -6.082031 15.78125 -4.753906 15.09375 -3.578125 C 14.40625 -2.398438 13.472656 -1.484375 12.296875 -0.828125 C 11.128906 -0.171875 9.84375 0.15625 8.4375 0.15625 Z M 8.4375 -3.1875 C 9.632812 -3.1875 10.59375 -3.585938 11.3125 -4.390625 C 12.03125 -5.191406 12.390625 -6.25 12.390625 -7.5625 C 12.390625 -8.882812 12.03125 -9.941406 11.3125 -10.734375 C 10.59375 -11.523438 9.632812 -11.921875 8.4375 -11.921875 C 7.21875 -11.921875 6.25 -11.523438 5.53125 -10.734375 C 4.8125 -9.953125 4.453125 -8.894531 4.453125 -7.5625 C 4.453125 -6.226562 4.8125 -5.164062 5.53125 -4.375 C 6.25 -3.582031 7.21875 -3.1875 8.4375 -3.1875 Z M 8.4375 -3.1875 "/></g></g></g><g fill="#fcfdfc" fill-opacity="1"><g transform="translate(234.880881, 188.805557)"><g/></g></g><g fill="#fcfdfc" fill-opacity="1"><g transform="translate(244.817155, 188.805557)"><g><path d="M 15.4375 -15.03125 L 10.109375 0 L 5.515625 0 L 0.1875 -15.03125 L 4.09375 -15.03125 L 7.8125 -3.6875 L 11.5625 -15.03125 Z M 15.4375 -15.03125 "/></g></g></g><g fill="#fcfdfc" fill-opacity="1"><g transform="translate(265.843863, 188.805557)"><g><path d="M 4.984375 -12.09375 L 4.984375 -9.0625 L 9.890625 -9.0625 L 9.890625 -6.234375 L 4.984375 -6.234375 L 4.984375 -2.9375 L 10.53125 -2.9375 L 10.53125 0 L 1.328125 0 L 1.328125 -15.03125 L 10.53125 -15.03125 L 10.53125 -12.09375 Z M 4.984375 -12.09375 "/></g></g></g><g fill="#fcfdfc" fill-opacity="1"><g transform="translate(282.824044, 188.805557)"><g><path d="M 8.984375 0 L 5.859375 -5.671875 L 4.984375 -5.671875 L 4.984375 0 L 1.328125 0 L 1.328125 -15.03125 L 7.46875 -15.03125 C 8.65625 -15.03125 9.664062 -14.820312 10.5 -14.40625 C 11.332031 -13.988281 11.957031 -13.421875 12.375 -12.703125 C 12.789062 -11.984375 13 -11.179688 13 -10.296875 C 13 -9.296875 12.710938 -8.398438 12.140625 -7.609375 C 11.578125 -6.828125 10.75 -6.273438 9.65625 -5.953125 L 13.125 0 Z M 4.984375 -8.265625 L 7.25 -8.265625 C 7.925781 -8.265625 8.429688 -8.425781 8.765625 -8.75 C 9.097656 -9.082031 9.265625 -9.546875 9.265625 -10.140625 C 9.265625 -10.710938 9.097656 -11.160156 8.765625 -11.484375 C 8.429688 -11.816406 7.925781 -11.984375 7.25 -11.984375 L 4.984375 -11.984375 Z M 4.984375 -8.265625 "/></g></g></g><g fill="#fcfdfc" fill-opacity="1"><g transform="translate(302.180761, 188.805557)"><g><path d="M 6.953125 -15.03125 C 8.535156 -15.03125 9.921875 -14.710938 11.109375 -14.078125 C 12.296875 -13.453125 13.210938 -12.570312 13.859375 -11.4375 C 14.503906 -10.300781 14.828125 -8.992188 14.828125 -7.515625 C 14.828125 -6.046875 14.503906 -4.738281 13.859375 -3.59375 C 13.210938 -2.457031 12.289062 -1.570312 11.09375 -0.9375 C 9.90625 -0.3125 8.523438 0 6.953125 0 L 1.328125 0 L 1.328125 -15.03125 Z M 6.71875 -3.171875 C 8.101562 -3.171875 9.179688 -3.546875 9.953125 -4.296875 C 10.722656 -5.054688 11.109375 -6.128906 11.109375 -7.515625 C 11.109375 -8.898438 10.722656 -9.976562 9.953125 -10.75 C 9.179688 -11.519531 8.101562 -11.90625 6.71875 -11.90625 L 4.984375 -11.90625 L 4.984375 -3.171875 Z M 6.71875 -3.171875 "/></g></g></g><g fill="#fcfdfc" fill-opacity="1"><g transform="translate(323.143222, 188.805557)"><g><path d="M 4.984375 -12.09375 L 4.984375 -9.0625 L 9.890625 -9.0625 L 9.890625 -6.234375 L 4.984375 -6.234375 L 4.984375 -2.9375 L 10.53125 -2.9375 L 10.53125 0 L 1.328125 0 L 1.328125 -15.03125 L 10.53125 -15.03125 L 10.53125 -12.09375 Z M 4.984375 -12.09375 "/></g></g></g></svg>